<svg xmlns="http://www.w3.org/2000/svg" width="48.471" height="48.471" viewBox="0 0 48.471 48.471">
  <path id="Path_2" data-name="Path 2" d="M21.253,44.971H4.947A4.441,4.441,0,0,1,.5,40.524V4.947A4.441,4.441,0,0,1,4.947.5H40.524a4.441,4.441,0,0,1,4.447,4.447V40.524a4.441,4.441,0,0,1-4.447,4.447H30.148V28.665h4.447l2.965-7.412H30.148v-5.93c0-1.631,1.334-1.482,2.965-1.482h2.965V6.43h-5.93a8.908,8.908,0,0,0-8.894,8.894v5.93h-5.93v7.412h5.93Z" transform="translate(1.5 1.5)" fill="none" stroke="#f75443" stroke-linecap="round" stroke-linejoin="round" stroke-miterlimit="10" stroke-width="4"/>
</svg>
