<svg xmlns="http://www.w3.org/2000/svg" width="51" height="51" viewBox="0 0 51 51">
  <path id="Path_1" data-name="Path 1" d="M41.117,10.823h0a3.06,3.06,0,1,0,3.06,3.06A3.06,3.06,0,0,0,41.117,10.823Zm11.73,6.171a19.354,19.354,0,0,0-1.173-6.2,12.6,12.6,0,0,0-2.958-4.513A11.985,11.985,0,0,0,44.2,3.351a18.615,18.615,0,0,0-6.2-1.2C35.3,2,34.436,2,27.5,2s-7.8,0-10.506.153a18.615,18.615,0,0,0-6.2,1.2A12.189,12.189,0,0,0,6.284,6.284,11.985,11.985,0,0,0,3.352,10.8a18.615,18.615,0,0,0-1.2,6.2C2,19.7,2,20.564,2,27.5s0,7.8.153,10.506a18.615,18.615,0,0,0,1.2,6.2,11.985,11.985,0,0,0,2.933,4.514A12.189,12.189,0,0,0,10.8,51.649a18.615,18.615,0,0,0,6.2,1.2C19.7,53,20.564,53,27.5,53s7.8,0,10.506-.153a18.615,18.615,0,0,0,6.2-1.2,11.985,11.985,0,0,0,4.514-2.932A12.367,12.367,0,0,0,51.674,44.2a19.355,19.355,0,0,0,1.173-6.2c0-2.7.153-3.57.153-10.506S53,19.7,52.847,16.994ZM48.257,37.7a14.306,14.306,0,0,1-.867,4.743,7.8,7.8,0,0,1-1.912,2.932,8.134,8.134,0,0,1-2.932,1.913,14.306,14.306,0,0,1-4.743.867c-2.55.127-3.494.153-10.2.153s-7.65,0-10.2-.153a14.612,14.612,0,0,1-4.947-.765A8.339,8.339,0,0,1,9.65,45.478a7.65,7.65,0,0,1-1.887-2.932A14.127,14.127,0,0,1,6.743,37.7c0-2.55-.153-3.494-.153-10.2s0-7.65.153-10.2a14.127,14.127,0,0,1,.893-4.845A7.65,7.65,0,0,1,9.65,9.65a8.007,8.007,0,0,1,2.8-2.04A14.612,14.612,0,0,1,17.3,6.743c2.55,0,3.493-.153,10.2-.153s7.65,0,10.2.153a14.306,14.306,0,0,1,4.743.867,7.8,7.8,0,0,1,3.034,2.04,7.8,7.8,0,0,1,1.913,2.8,14.306,14.306,0,0,1,.867,4.845c.127,2.55.153,3.493.153,10.2S48.385,35.15,48.257,37.7ZM27.5,14.419a13.056,13.056,0,1,0,9.274,3.815A13.082,13.082,0,0,0,27.5,14.419Zm0,21.573A8.492,8.492,0,1,1,35.992,27.5,8.492,8.492,0,0,1,27.5,35.992Z" transform="translate(-2 -2)" fill="#f75443"/>
</svg>
